<svg width="52" height="49" viewBox="0 0 52 49" fill="none" xmlns="http://www.w3.org/2000/svg">
<path d="M0 24.5C0 11.2452 10.7452 0.5 24 0.5H28C41.2548 0.5 52 11.2452 52 24.5C52 37.7548 41.2548 48.5 28 48.5H24C10.7452 48.5 0 37.7548 0 24.5Z" fill="#FFDA5B"/>
<path d="M22.2008 32.788C20.6968 32.788 19.3928 32.428 18.2888 31.708C17.2008 30.972 16.3608 29.956 15.7688 28.66C15.1928 27.348 14.9048 25.828 14.9048 24.1C14.9048 22.372 15.1928 20.86 15.7688 19.564C16.3608 18.252 17.2008 17.236 18.2888 16.516C19.3768 15.78 20.6808 15.412 22.2008 15.412C23.7208 15.412 25.0168 15.78 26.0888 16.516C27.1768 17.236 28.0088 18.252 28.5848 19.564C29.1768 20.86 29.4728 22.372 29.4728 24.1C29.4728 25.828 29.1768 27.348 28.5848 28.66C28.0088 29.956 27.1768 30.972 26.0888 31.708C25.0168 32.428 23.7208 32.788 22.2008 32.788ZM22.2008 30.652C23.1288 30.652 23.9528 30.388 24.6728 29.86C25.4088 29.332 25.9848 28.58 26.4008 27.604C26.8168 26.628 27.0248 25.46 27.0248 24.1C27.0248 22.74 26.8168 21.572 26.4008 20.596C25.9848 19.62 25.4088 18.876 24.6728 18.364C23.9528 17.836 23.1288 17.572 22.2008 17.572C21.2568 17.572 20.4168 17.836 19.6808 18.364C18.9608 18.876 18.3928 19.62 17.9768 20.596C17.5608 21.572 17.3528 22.74 17.3528 24.1C17.3528 25.46 17.5608 26.628 17.9768 27.604C18.3928 28.58 18.9608 29.332 19.6808 29.86C20.4168 30.388 21.2568 30.652 22.2008 30.652ZM34.038 32.5V18.412L31.278 19.036V17.284L34.926 15.7H36.486V32.5H34.038Z" fill="black"/>
</svg>
