<svg width="52" height="48" viewBox="0 0 52 48" fill="none" xmlns="http://www.w3.org/2000/svg">
<path d="M0 24C0 10.7452 10.7452 0 24 0H28C41.2548 0 52 10.7452 52 24C52 37.2548 41.2548 48 28 48H24C10.7452 48 0 37.2548 0 24Z" fill="#FFDA5B"/>
<path d="M19.1868 32.288C17.6988 32.288 16.4188 31.928 15.3468 31.208C14.2748 30.472 13.4508 29.456 12.8748 28.16C12.2988 26.848 12.0108 25.328 12.0108 23.6C12.0108 21.872 12.2988 20.36 12.8748 19.064C13.4508 17.752 14.2748 16.736 15.3468 16.016C16.4188 15.28 17.6988 14.912 19.1868 14.912C20.6748 14.912 21.9468 15.28 23.0028 16.016C24.0748 16.736 24.8908 17.752 25.4508 19.064C26.0268 20.36 26.3148 21.872 26.3148 23.6C26.3148 25.328 26.0268 26.848 25.4508 28.16C24.8908 29.456 24.0748 30.472 23.0028 31.208C21.9468 31.928 20.6748 32.288 19.1868 32.288ZM19.1868 30.152C20.0828 30.152 20.8828 29.888 21.5868 29.36C22.3068 28.832 22.8668 28.08 23.2668 27.104C23.6668 26.128 23.8668 24.96 23.8668 23.6C23.8668 22.24 23.6668 21.072 23.2668 20.096C22.8668 19.12 22.3068 18.376 21.5868 17.864C20.8828 17.336 20.0828 17.072 19.1868 17.072C18.2748 17.072 17.4588 17.336 16.7388 17.864C16.0188 18.376 15.4588 19.12 15.0588 20.096C14.6588 21.072 14.4588 22.24 14.4588 23.6C14.4588 24.96 14.6588 26.128 15.0588 27.104C15.4588 28.08 16.0188 28.832 16.7388 29.36C17.4588 29.888 18.2748 30.152 19.1868 30.152ZM28.6816 32V30.272C29.8016 29.408 30.8656 28.536 31.8736 27.656C32.8816 26.776 33.7776 25.904 34.5616 25.04C35.3616 24.16 35.9856 23.304 36.4336 22.472C36.8816 21.624 37.1056 20.816 37.1056 20.048C37.1056 19.504 37.0096 19 36.8176 18.536C36.6256 18.072 36.3216 17.696 35.9056 17.408C35.4896 17.104 34.9216 16.952 34.2016 16.952C33.5136 16.952 32.9376 17.104 32.4736 17.408C32.0256 17.712 31.6816 18.12 31.4416 18.632C31.2176 19.128 31.1056 19.68 31.1056 20.288H28.7776C28.7936 19.136 29.0416 18.16 29.5216 17.36C30.0016 16.56 30.6496 15.952 31.4656 15.536C32.2976 15.12 33.2256 14.912 34.2496 14.912C35.3216 14.912 36.2496 15.112 37.0336 15.512C37.8176 15.896 38.4256 16.464 38.8576 17.216C39.2896 17.952 39.5056 18.856 39.5056 19.928C39.5056 20.696 39.3536 21.464 39.0496 22.232C38.7456 22.984 38.3296 23.72 37.8016 24.44C37.2896 25.16 36.7136 25.856 36.0736 26.528C35.4336 27.184 34.7696 27.808 34.0816 28.4C33.4096 28.992 32.7616 29.528 32.1376 30.008H40.0336V32H28.6816Z" fill="black"/>
</svg>
