<svg width="120" height="21" viewBox="0 0 120 21" fill="none" xmlns="http://www.w3.org/2000/svg">
<path d="M110.706 5.08496L112.627 9.32235L114.604 5.08496H119.661L115.056 12.2038L120 20.1136H115.141L112.57 15.2547L110.113 20.1136H105.226L110.141 12.2885L105.649 5.08496H110.706Z" fill="#FF791A"/>
<path d="M93.8476 13.5032C93.8476 14.2189 93.9511 14.8215 94.1583 15.3112C94.3843 15.8008 94.6574 16.1963 94.9775 16.4976C95.2977 16.7801 95.6461 16.9873 96.0228 17.1191C96.3994 17.2321 96.7667 17.2886 97.1245 17.2886C97.5388 17.2886 97.8966 17.2415 98.1979 17.1474C98.5181 17.0344 98.8194 16.8649 99.1019 16.6389C99.3844 16.4129 99.6575 16.1398 99.9211 15.8197C100.185 15.4807 100.477 15.0852 100.797 14.6332L104.102 16.3564C103.33 17.7689 102.341 18.8141 101.136 19.4921C99.9494 20.1701 98.5087 20.509 96.8137 20.509C95.6461 20.509 94.6009 20.3207 93.6781 19.9441C92.7741 19.5674 92.0019 19.0495 91.3616 18.3903C90.7401 17.7124 90.2599 16.9214 89.9209 16.0174C89.6008 15.0946 89.4407 14.1059 89.4407 13.0512C89.4407 10.377 90.0904 8.31478 91.3899 6.86465C92.7082 5.41452 94.5161 4.68945 96.8137 4.68945C98.1885 4.68945 99.3373 4.93428 100.26 5.42393C101.202 5.89475 101.965 6.54449 102.548 7.37313C103.132 8.18295 103.546 9.12459 103.791 10.1981C104.055 11.2527 104.187 12.3544 104.187 13.5032H93.8476ZM99.7799 10.7913C99.7422 10.2451 99.6198 9.79315 99.4127 9.43533C99.2243 9.05867 98.9889 8.75735 98.7064 8.53135C98.4239 8.30536 98.1132 8.14528 97.7742 8.05112C97.4352 7.95695 97.1056 7.90987 96.7855 7.90987C96.4653 7.90987 96.1357 7.96637 95.7968 8.07937C95.4766 8.19236 95.1753 8.37127 94.8928 8.6161C94.6103 8.8421 94.3655 9.14342 94.1583 9.52008C93.97 9.8779 93.8476 10.3016 93.7911 10.7913H99.7799Z" fill="white"/>
<path d="M86.5625 20.1135H82.3251V18.6445H82.2686C81.8919 19.1153 81.374 19.5485 80.7149 19.944C80.0557 20.3206 79.2271 20.509 78.2289 20.509C77.325 20.509 76.4775 20.3583 75.6865 20.057C74.8955 19.7557 74.1987 19.2942 73.5961 18.6728C73.0122 18.0324 72.5414 17.2226 72.1836 16.2433C71.8446 15.2452 71.6657 14.0681 71.6469 12.7122C71.628 11.2244 71.8069 9.97199 72.1836 8.95502C72.5602 7.91921 73.0499 7.09057 73.6525 6.46908C74.274 5.82876 74.9709 5.37678 75.743 5.11312C76.5151 4.83062 77.2779 4.68938 78.0312 4.68938C78.3325 4.68938 78.6527 4.70821 78.9917 4.74588C79.3495 4.78354 79.7073 4.85887 80.0651 4.97187C80.423 5.08487 80.7808 5.24495 81.1386 5.45211C81.4964 5.65927 81.8354 5.93235 82.1556 6.27134V0H86.5625V20.1135ZM82.1556 12.2884C82.1556 10.9325 81.9296 9.86841 81.4776 9.09626C81.0256 8.30528 80.2252 7.90979 79.0764 7.90979C78.0218 7.90979 77.2496 8.33353 76.76 9.18101C76.2891 10.0097 76.0537 11.149 76.0537 12.5992C76.0537 13.2207 76.0914 13.8139 76.1667 14.3789C76.2609 14.9439 76.421 15.4429 76.647 15.8761C76.873 16.3092 77.1837 16.6576 77.5792 16.9213C77.9747 17.1661 78.4738 17.2885 79.0764 17.2885C79.6414 17.2885 80.1216 17.1661 80.5171 16.9213C80.9126 16.6576 81.2328 16.3092 81.4776 15.8761C81.7224 15.4241 81.8919 14.8968 81.9861 14.2941C82.0991 13.6726 82.1556 13.0041 82.1556 12.2884Z" fill="white"/>
<path d="M64.4216 12.797L61.4555 13.6445C60.9093 13.7951 60.4196 14.0117 59.9865 14.2942C59.5533 14.5579 59.3368 14.991 59.3368 15.5937C59.3368 16.1963 59.5439 16.6295 59.9582 16.8931C60.3726 17.1568 60.8528 17.2886 61.399 17.2886C62.2653 17.2886 62.9809 17.0061 63.5459 16.4411C64.1297 15.8573 64.4216 14.991 64.4216 13.8422V12.797ZM68.659 16.9779C68.659 17.5052 68.6778 18.0419 68.7155 18.5881C68.7532 19.1342 68.8662 19.6427 69.0545 20.1136H64.9866C64.8924 19.8499 64.8265 19.5956 64.7889 19.3508C64.7512 19.0872 64.723 18.8235 64.7041 18.5598H64.6476C64.4593 18.8612 64.1956 19.1342 63.8566 19.3791C63.5176 19.6051 63.1316 19.8028 62.6984 19.9723C62.2841 20.1418 61.8509 20.2736 61.399 20.3678C60.947 20.462 60.5232 20.509 60.1277 20.509C59.4121 20.509 58.7435 20.4055 58.122 20.1983C57.5194 20.01 56.9921 19.7275 56.5401 19.3508C56.0881 18.9742 55.7303 18.5128 55.4666 17.9666C55.2218 17.4016 55.0994 16.7613 55.0994 16.0457C55.0994 15.1417 55.2689 14.379 55.6079 13.7575C55.9657 13.1172 56.4742 12.5898 57.1333 12.1755C57.8113 11.7424 58.6211 11.3939 59.5628 11.1303C60.5232 10.8666 61.6061 10.65 62.8114 10.4806L64.4216 10.2546V9.01159C64.4216 8.44661 64.2239 8.0417 63.8284 7.79687C63.4329 7.53321 62.9338 7.40138 62.3312 7.40138C61.6155 7.40138 61.0788 7.55205 60.721 7.85337C60.3631 8.13586 60.1277 8.65377 60.0147 9.40708H55.7773C55.815 8.33361 56.0598 7.48613 56.5118 6.86465C56.9827 6.22433 57.5288 5.74409 58.1503 5.42393C58.7906 5.10378 59.4592 4.90603 60.156 4.8307C60.8528 4.73654 61.4555 4.68945 61.9639 4.68945C62.9809 4.68945 63.9037 4.75537 64.7324 4.8872C65.561 5.01903 66.2578 5.25444 66.8228 5.59343C67.4066 5.93242 67.8586 6.38441 68.1788 6.94939C68.4989 7.49555 68.659 8.19236 68.659 9.03984V16.9779Z" fill="white"/>
<path d="M44.9954 5.08482H49.4022V6.61028C49.8919 6.15829 50.504 5.80047 51.2385 5.53681C51.9729 5.25432 52.7357 5.08482 53.5266 5.02832L53.5549 8.92672L53.0747 8.98322C51.7564 9.13388 50.8147 9.36929 50.2497 9.68945C49.6847 10.0096 49.4022 10.584 49.4022 11.4127V20.1134H44.9954V5.08482Z" fill="white"/>
<path d="M42.4935 8.07941H39.8663V15.4525C39.8663 16.0551 39.9982 16.46 40.2618 16.6672C40.5255 16.8555 40.8551 16.9497 41.2505 16.9497C41.4954 16.9497 41.7496 16.9403 42.0133 16.9214C42.2769 16.9026 42.4653 16.8838 42.5783 16.8649V20.3396C42.2958 20.3773 41.872 20.4149 41.307 20.4526C40.7609 20.4903 40.243 20.5091 39.7533 20.5091C38.8117 20.5091 38.0584 20.3773 37.4934 20.1136C36.9284 19.8499 36.4953 19.5015 36.1939 19.0684C35.8926 18.6352 35.6949 18.155 35.6007 17.6277C35.5065 17.0815 35.4594 16.5354 35.4594 15.9892V8.07941H33.3125V5.36748H35.4594V1.01709H39.8663V5.36748H42.4935V8.07941Z" fill="white"/>
<path d="M31.1117 5.08487V20.1135H26.7048V5.08487H31.1117ZM26.7048 3.38991V0H31.1117V3.38991H26.7048Z" fill="white"/>
<path d="M18.3462 20.1135V0H22.7531V20.1135H18.3462Z" fill="white"/>
<path d="M0 20.1135V0H14.8026V3.8984H5.02837V7.5708H14.1529V11.4692H5.02837V16.2151H15.6501V20.1135H0Z" fill="white"/>
</svg>
