<svg width="120" height="22" viewBox="0 0 120 22" fill="none" xmlns="http://www.w3.org/2000/svg">
<path d="M110.706 5.83057L112.627 10.068L114.604 5.83057H119.661L115.056 12.9494L120 20.8592H115.141L112.57 16.0003L110.113 20.8592H105.226L110.141 13.0341L105.649 5.83057H110.706Z" fill="#FF791A"/>
<path d="M93.8476 14.2486C93.8476 14.9642 93.9511 15.5669 94.1583 16.0565C94.3843 16.5462 94.6574 16.9417 94.9775 17.243C95.2977 17.5255 95.6461 17.7327 96.0228 17.8645C96.3994 17.9775 96.7667 18.034 97.1245 18.034C97.5388 18.034 97.8966 17.9869 98.1979 17.8927C98.5181 17.7797 98.8194 17.6102 99.1019 17.3843C99.3844 17.1583 99.6575 16.8852 99.9211 16.565C100.185 16.226 100.477 15.8305 100.797 15.3786L104.102 17.1018C103.33 18.5142 102.341 19.5594 101.136 20.2374C99.9494 20.9154 98.5087 21.2544 96.8137 21.2544C95.6461 21.2544 94.6009 21.0661 93.6781 20.6894C92.7741 20.3128 92.0019 19.7949 91.3616 19.1357C90.7401 18.4577 90.2599 17.6667 89.9209 16.7628C89.6008 15.84 89.4407 14.8512 89.4407 13.7966C89.4407 11.1223 90.0904 9.06014 91.3899 7.61001C92.7082 6.15988 94.5161 5.43481 96.8137 5.43481C98.1885 5.43481 99.3373 5.67964 100.26 6.16929C101.202 6.64012 101.965 7.28985 102.548 8.11849C103.132 8.92831 103.546 9.86995 103.791 10.9434C104.055 11.9981 104.187 13.0998 104.187 14.2486H93.8476ZM99.7799 11.5367C99.7422 10.9905 99.6198 10.5385 99.4127 10.1807C99.2243 9.80403 98.9889 9.50271 98.7064 9.27671C98.4239 9.05072 98.1132 8.89064 97.7742 8.79648C97.4352 8.70231 97.1056 8.65523 96.7855 8.65523C96.4653 8.65523 96.1357 8.71173 95.7968 8.82473C95.4766 8.93772 95.1753 9.11664 94.8928 9.36146C94.6103 9.58746 94.3655 9.88878 94.1583 10.2654C93.97 10.6233 93.8476 11.047 93.7911 11.5367H99.7799Z" fill="black"/>
<path d="M86.5625 20.8591H82.3251V19.3901H82.2686C81.8919 19.8609 81.374 20.2941 80.7149 20.6896C80.0557 21.0662 79.2271 21.2546 78.2289 21.2546C77.325 21.2546 76.4775 21.1039 75.6865 20.8026C74.8955 20.5013 74.1987 20.0399 73.5961 19.4184C73.0122 18.7781 72.5414 17.9682 72.1836 16.9889C71.8446 15.9908 71.6657 14.8137 71.6469 13.4578C71.628 11.97 71.8069 10.7176 72.1836 9.70062C72.5602 8.66482 73.0499 7.83617 73.6525 7.21469C74.274 6.57437 74.9709 6.12238 75.743 5.85872C76.5151 5.57623 77.2779 5.43498 78.0312 5.43498C78.3325 5.43498 78.6527 5.45382 78.9917 5.49148C79.3495 5.52915 79.7073 5.60448 80.0651 5.71748C80.423 5.83047 80.7808 5.99055 81.1386 6.19771C81.4964 6.40487 81.8354 6.67795 82.1556 7.01694V0.745605H86.5625V20.8591ZM82.1556 13.034C82.1556 11.6781 81.9296 10.614 81.4776 9.84187C81.0256 9.05089 80.2252 8.6554 79.0764 8.6554C78.0218 8.6554 77.2496 9.07914 76.76 9.92662C76.2891 10.7553 76.0537 11.8946 76.0537 13.3448C76.0537 13.9663 76.0914 14.5595 76.1667 15.1245C76.2609 15.6895 76.421 16.1885 76.647 16.6217C76.873 17.0548 77.1837 17.4033 77.5792 17.6669C77.9747 17.9117 78.4738 18.0342 79.0764 18.0342C79.6414 18.0342 80.1216 17.9117 80.5171 17.6669C80.9126 17.4033 81.2328 17.0548 81.4776 16.6217C81.7224 16.1697 81.8919 15.6424 81.9861 15.0397C82.0991 14.4182 82.1556 13.7497 82.1556 13.034Z" fill="black"/>
<path d="M64.4216 13.5424L61.4555 14.3898C60.9093 14.5405 60.4196 14.7571 59.9865 15.0396C59.5533 15.3032 59.3368 15.7364 59.3368 16.339C59.3368 16.9417 59.5439 17.3748 59.9582 17.6385C60.3726 17.9022 60.8528 18.034 61.399 18.034C62.2653 18.034 62.9809 17.7515 63.5459 17.1865C64.1297 16.6027 64.4216 15.7364 64.4216 14.5876V13.5424ZM68.659 17.7232C68.659 18.2506 68.6778 18.7873 68.7155 19.3335C68.7532 19.8796 68.8662 20.3881 69.0545 20.8589H64.9866C64.8924 20.5953 64.8265 20.341 64.7889 20.0962C64.7512 19.8325 64.723 19.5689 64.7041 19.3052H64.6476C64.4593 19.6065 64.1956 19.8796 63.8566 20.1244C63.5176 20.3504 63.1316 20.5482 62.6984 20.7177C62.2841 20.8872 61.8509 21.019 61.399 21.1132C60.947 21.2073 60.5232 21.2544 60.1277 21.2544C59.4121 21.2544 58.7435 21.1508 58.122 20.9437C57.5194 20.7553 56.9921 20.4728 56.5401 20.0962C56.0881 19.7195 55.7303 19.2581 55.4666 18.712C55.2218 18.147 55.0994 17.5067 55.0994 16.791C55.0994 15.887 55.2689 15.1243 55.6079 14.5028C55.9657 13.8625 56.4742 13.3352 57.1333 12.9209C57.8113 12.4877 58.6211 12.1393 59.5628 11.8756C60.5232 11.612 61.6061 11.3954 62.8114 11.2259L64.4216 10.9999V9.75695C64.4216 9.19197 64.2239 8.78706 63.8284 8.54223C63.4329 8.27857 62.9338 8.14674 62.3312 8.14674C61.6155 8.14674 61.0788 8.29741 60.721 8.59873C60.3631 8.88122 60.1277 9.39913 60.0147 10.1524H55.7773C55.815 9.07897 56.0598 8.23149 56.5118 7.61001C56.9827 6.96969 57.5288 6.48945 58.1503 6.16929C58.7906 5.84914 59.4592 5.65139 60.156 5.57606C60.8528 5.4819 61.4555 5.43481 61.9639 5.43481C62.9809 5.43481 63.9037 5.50073 64.7324 5.63256C65.561 5.76439 66.2578 5.9998 66.8228 6.33879C67.4066 6.67778 67.8586 7.12977 68.1788 7.69476C68.4989 8.24091 68.659 8.93772 68.659 9.7852V17.7232Z" fill="black"/>
<path d="M44.9954 5.83043H49.4022V7.35589C49.8919 6.9039 50.504 6.54607 51.2385 6.28241C51.9729 5.99992 52.7357 5.83042 53.5266 5.77393L53.5549 9.67233L53.0747 9.72882C51.7564 9.87949 50.8147 10.1149 50.2497 10.4351C49.6847 10.7552 49.4022 11.3296 49.4022 12.1583V20.859H44.9954V5.83043Z" fill="black"/>
<path d="M42.4935 8.82477H39.8663V16.1978C39.8663 16.8005 39.9982 17.2054 40.2618 17.4125C40.5255 17.6009 40.8551 17.695 41.2505 17.695C41.4954 17.695 41.7496 17.6856 42.0133 17.6668C42.2769 17.648 42.4653 17.6291 42.5783 17.6103V21.085C42.2958 21.1226 41.872 21.1603 41.307 21.1979C40.7609 21.2356 40.243 21.2544 39.7533 21.2544C38.8117 21.2544 38.0584 21.1226 37.4934 20.859C36.9284 20.5953 36.4953 20.2469 36.1939 19.8137C35.8926 19.3806 35.6949 18.9003 35.6007 18.373C35.5065 17.8269 35.4594 17.2807 35.4594 16.7346V8.82477H33.3125V6.11284H35.4594V1.76245H39.8663V6.11284H42.4935V8.82477Z" fill="black"/>
<path d="M31.1117 5.83047V20.8591H26.7048V5.83047H31.1117ZM26.7048 4.13552V0.745605H31.1117V4.13552H26.7048Z" fill="black"/>
<path d="M18.3462 20.8591V0.745605H22.7531V20.8591H18.3462Z" fill="black"/>
<path d="M0 20.8591V0.745605H14.8026V4.644H5.02837V8.31641H14.1529V12.2148H5.02837V16.9607H15.6501V20.8591H0Z" fill="black"/>
</svg>
